<?xml version="1.0" encoding="UTF-8"?>
<svg id="Layer_1" xmlns="http://www.w3.org/2000/svg" version="1.1" viewBox="0 0 1080 1080">
  <!-- Generator: Adobe Illustrator 29.0.0, SVG Export Plug-In . SVG Version: 2.1.0 Build 186)  -->
  <defs>
    <style>
      .st0 {
        fill: #f6f6f6;
      }
    </style>
  </defs>
  <g>
    <path class="st0" d="M473.38,706.61c33.49-46.1,98.96-57.2,145.93-24.73,43.98,30.4,83.6,46.02,114.6,45.18,22.84-.62,41.58-10.35,57.26-29.74,31.03-38.38,46.5-110.05,40.36-187.03-6.21-77.82-33.82-148.53-72.07-184.53-50.2-47.25-118.52-32.01-203.05,45.27-32.1,29.35-78.2,36.18-117.45,17.39-53.78-25.75-100.58-36.41-135.79-30.97-1.55.24-3.07.51-4.58.81-27.1,5.43-47.48,21.04-62.31,47.73-26.46,47.62-31.75,126.65-13.81,206.25,17.66,78.33,54.28,143.35,95.57,169.68,45.62,29.1,97.88,3.77,155.32-75.3ZM592.81,468.87h0c4.95-3.51,49.63-33.88,94.4-20.66,17.27,5.1,40.83,18.64,55.04,54.21h0c6.86,17.2-1.51,36.7-18.7,43.57h0c-17.19,6.87-36.7-1.51-43.56-18.7h0c-3.39-8.5-7.35-13.47-11.75-14.77-10.59-3.13-30.23,6.5-36.64,11.05-15.1,10.71-36.03,7.14-46.74-7.96h0c-10.71-15.11-7.14-36.03,7.96-46.74ZM307.97,569.41h0c2.82-38.19,21.21-58.21,36.14-68.28,38.71-26.11,90.47-10.61,96.24-8.75h0c17.63,5.66,27.33,24.54,21.67,42.17h0c-5.66,17.63-24.54,27.33-42.16,21.68-7.48-2.4-29.11-5.67-38.27.51-3.81,2.57-6.08,8.5-6.76,17.62h0c-1.37,18.47-17.44,32.33-35.9,30.96h0c-18.46-1.36-32.32-17.44-30.96-35.9Z"/>
    <path class="st0" d="M481.19,300.22h0c3.04,1.46,6.75.91,9.24-1.37,55.02-50.3,109-81.44,160.81-92.91-63.04-40.21-133.46-60.32-187.03-52.06-45.93,7.09-103.4,45.3-152.64,104.62,50.11-2.26,106.97,11.71,169.62,41.7Z"/>
    <path class="st0" d="M563.71,762.31c-3.58-2.48-8.73-1.67-11.23,1.77-62.11,85.48-121.61,118.04-171.33,125.71-23.57,3.64-44.93,1.67-63.35-2.88,58.11,68.2,144.69,112.15,273.72,92.25,110-16.97,183.64-62.33,225.13-138.68,8.86-16.31,16.27-34.14,22.26-53.45-19.55,15.74-46.2,30.59-80.5,35.88-48.87,7.54-113.25-4.31-194.69-60.6Z"/>
    <path class="st0" d="M488.51,88.37c36.14,0,76.31,7.98,116.18,23.08,40.86,15.47,81.36,38.43,117.12,66.39,100.41,78.51,167.11,195.63,187.81,329.8,23.55,152.63,11.11,274.85-36.95,363.29-12.62,23.23-27.85,44.47-45.27,63.15-17.39,18.65-37.48,35.28-59.69,49.43-45.36,28.89-101.36,48.63-166.47,58.67-23.68,3.65-47.07,5.51-69.51,5.51-47.82,0-92.7-8.34-133.4-24.78-40.6-16.4-77.41-41.03-109.39-73.19-71.86-72.26-121.25-184.4-142.83-324.3-18.98-123.06,9.84-250.92,81.16-360.04,31.07-47.54,69.14-89.04,110.08-120.01,39.55-29.92,80.05-48.76,117.13-54.48,10.79-1.66,22.24-2.51,34.02-2.51h0M488.51,54.35c-13.45,0-26.56.96-39.21,2.91-86.88,13.4-182.86,86.01-250.5,189.5-75.92,116.16-106.57,252.48-86.31,383.84,22.69,147.05,75.36,265.69,152.32,343.1,70.92,71.32,162.16,108,266.91,108,24.2,0,49.14-1.96,74.7-5.9,140.24-21.63,239.87-85.1,296.13-188.63,51.7-95.13,65.38-224.57,40.68-384.72-22.02-142.76-93.22-267.56-200.48-351.41-78.66-61.5-172.66-96.68-254.25-96.68h0Z"/>
  </g>
  <path class="st0" d="M809.46,137.79c-7.32,0-14.7-2.21-21.1-6.79-16.29-11.67-20.04-34.34-8.36-50.64l46.72-65.21c11.67-16.29,34.34-20.04,50.64-8.36,16.29,11.67,20.04,34.34,8.36,50.64l-46.72,65.21c-7.09,9.89-18.23,15.16-29.53,15.16Z"/>
  <path class="st0" d="M871.41,209.11c-11.86,0-23.48-5.8-30.44-16.48-10.94-16.79-6.2-39.27,10.59-50.22l67.2-43.8c16.79-10.94,39.27-6.2,50.22,10.59,10.94,16.79,6.2,39.27-10.59,50.22l-67.2,43.8c-6.12,3.99-12.99,5.89-19.78,5.89Z"/>
</svg>