<svg width="237" height="69" viewBox="0 0 237 69" fill="none" xmlns="http://www.w3.org/2000/svg">
<g clip-path="url(#clip0_16_105)">
<path d="M26.685 3.37008C24.645 3.22008 22.875 4.76008 22.725 6.80008L21.665 21.5801C15.335 21.1901 9.99503 23.5601 6.22503 28.4401C3.07503 32.5201 1.15503 38.2101 0.675028 44.9101C-0.314972 58.7701 5.99503 66.8901 18.465 67.7801C22.475 68.0701 25.975 65.0401 26.265 61.0201L30.115 7.33008C30.265 5.29008 28.725 3.52008 26.685 3.37008ZM18.885 60.3901C13.355 59.9701 7.16503 57.8601 8.05503 45.4401C8.42503 40.2701 10.445 28.3801 21.135 28.9701L18.885 60.3901Z" fill="#F6F6F6"/>
<path d="M40.595 20.4201C38.565 20.2701 36.805 21.8001 36.665 23.8201L33.845 62.8701C33.695 64.9001 35.225 66.6601 37.245 66.8001C39.265 66.9401 41.035 65.4201 41.175 63.4001L43.995 24.3501C44.145 22.3201 42.615 20.5601 40.595 20.4201Z" fill="#F6F6F6"/>
<path d="M41.525 7.31006C40.015 7.20006 37.495 9.11006 37.295 11.9001C37.095 14.6901 38.125 16.8501 40.815 17.0501C43.515 17.2401 44.815 15.5601 45.045 12.4601C45.265 9.37006 43.035 7.42006 41.525 7.31006Z" fill="#F6F6F6"/>
<path d="M233.295 2.96C231.275 2.65 229.385 4.03 229.065 6.05L222.255 50.04C221.945 52.06 223.325 53.95 225.345 54.27C227.365 54.59 229.255 53.2 229.575 51.18L236.385 7.19C236.695 5.17 235.315 3.28 233.295 2.96Z" fill="#F6F6F6"/>
<path d="M224.865 57.39C223.365 57.16 220.705 58.85 220.275 61.62C219.845 64.39 220.695 66.62 223.365 67.04C226.035 67.46 227.475 65.88 227.955 62.81C228.425 59.74 226.365 57.62 224.865 57.39Z" fill="#F6F6F6"/>
<path d="M178.445 26.4C178.145 24.39 176.265 23.01 174.265 23.31C172.255 23.61 170.875 25.49 171.175 27.49L175.135 53.79C174.795 56.46 172.785 58.49 171.455 58.69C170.135 58.89 167.655 57.82 166.525 55.23L162.545 28.79C162.245 26.78 160.365 25.4 158.365 25.7C156.355 26 154.975 27.88 155.275 29.88L159.465 57.71C160.345 63.58 167.355 67.67 172.465 66.9C177.395 66.16 183.595 60.55 182.475 53.11L178.455 26.39L178.445 26.4Z" fill="#F6F6F6"/>
<path d="M147.065 24.6901C144.825 25.1201 143.355 27.2901 143.785 29.5301C144.035 30.8101 143.525 33.2501 141.825 35.5801C140.425 37.5101 137.795 39.9901 133.175 40.8801C132.815 40.9501 132.475 41.07 132.155 41.2201L136.755 4.91005C137.015 2.90005 135.585 1.06005 133.565 0.800052C131.555 0.540052 129.715 1.97005 129.455 3.99005L122.125 61.89C121.865 63.9 123.295 65.7401 125.315 66.0001C127.325 66.2601 129.165 64.83 129.425 62.8101L131.245 48.4701C131.755 48.8801 132.375 49.18 133.065 49.3101C134.345 49.5501 136.425 50.9101 137.985 53.3501C139.265 55.3601 140.615 58.7201 139.745 63.34C139.325 65.58 140.805 67.7501 143.045 68.1701C143.125 68.19 143.205 68.2001 143.295 68.2101C145.445 68.48 147.475 67.0301 147.875 64.87C148.935 59.19 147.905 53.5201 144.945 48.91C144.255 47.83 143.475 46.83 142.625 45.94C144.925 44.5 146.925 42.6501 148.515 40.4501C151.375 36.5101 152.635 31.8501 151.895 27.9901C151.465 25.7501 149.295 24.2801 147.055 24.7101L147.065 24.6901Z" fill="#F6F6F6"/>
<path d="M204.535 23.94L200.565 23.42C196.215 22.85 192.225 25.91 191.655 30.25L190.915 35.85L187.575 61.21C187.305 63.22 188.725 65.07 190.735 65.34C192.745 65.61 194.595 64.19 194.865 62.18L198.345 35.81C199.405 33.34 201.895 31.94 203.235 32.12C204.565 32.29 206.655 34.01 207.015 36.81L203.525 63.32C203.255 65.33 204.675 67.18 206.685 67.45C208.695 67.72 210.545 66.3 210.815 64.29L214.495 36.39C215.275 30.51 209.675 24.64 204.545 23.96L204.535 23.94Z" fill="#F6F6F6"/>
<path d="M72.735 35.0401C72.375 29.1201 65.765 24.4201 60.605 24.7301L56.605 24.9701C52.225 25.2301 48.895 28.9901 49.155 33.3701L49.495 39.0101L51.025 64.5401C51.145 66.5701 52.885 68.1101 54.915 67.9901C56.945 67.8701 58.485 66.1301 58.365 64.1001L56.765 37.5501C57.335 34.9201 59.525 33.0801 60.865 33.0001C62.205 32.9201 64.575 34.2001 65.475 36.8901L67.075 63.5801C67.195 65.6101 68.935 67.1501 70.965 67.0301C72.995 66.9101 74.535 65.1701 74.415 63.1401L72.725 35.0401H72.735Z" fill="#F6F6F6"/>
<path d="M108.635 20.31C108.345 20.37 108.025 20.35 107.735 20.22C106.985 19.89 106.645 19.01 106.975 18.26L108.295 15.25C108.625 14.5 109.505 14.16 110.255 14.49C111.005 14.82 111.345 15.7 111.015 16.45L109.695 19.46C109.495 19.92 109.095 20.22 108.645 20.32L108.635 20.31Z" fill="#F6F6F6"/>
<path d="M111.715 22.64C111.245 22.74 110.725 22.61 110.355 22.24C109.775 21.66 109.775 20.72 110.355 20.14L112.675 17.82C113.255 17.24 114.195 17.24 114.775 17.82C115.355 18.4 115.355 19.34 114.775 19.92L112.455 22.24C112.245 22.45 111.985 22.59 111.715 22.64Z" fill="#F6F6F6"/>
<path d="M95.695 49.5C97.305 47.29 100.445 46.76 102.695 48.31C104.805 49.77 106.705 50.52 108.195 50.48C109.295 50.45 110.185 49.98 110.945 49.05C112.435 47.21 113.175 43.77 112.885 40.08C112.585 36.35 111.265 32.95 109.425 31.23C107.015 28.96 103.735 29.69 99.685 33.4C98.145 34.81 95.935 35.14 94.055 34.23C91.475 32.99 89.225 32.48 87.545 32.74C87.475 32.75 87.395 32.76 87.325 32.78C86.025 33.04 85.045 33.79 84.335 35.07C83.065 37.35 82.815 41.15 83.675 44.96C84.525 48.72 86.275 51.84 88.255 53.1C90.445 54.5 92.955 53.28 95.705 49.49L95.695 49.5ZM101.425 38.09C101.665 37.92 103.805 36.46 105.955 37.1C106.785 37.34 107.915 37.99 108.595 39.7C108.925 40.52 108.525 41.46 107.695 41.79C106.875 42.12 105.935 41.72 105.605 40.89C105.445 40.48 105.255 40.24 105.045 40.18C104.535 40.03 103.595 40.49 103.285 40.71C102.565 41.22 101.555 41.05 101.045 40.33C100.535 39.61 100.705 38.6 101.425 38.09ZM87.765 42.91C87.905 41.08 88.785 40.12 89.495 39.63C91.355 38.38 93.835 39.12 94.115 39.21C94.965 39.48 95.425 40.39 95.155 41.23C94.885 42.08 93.975 42.54 93.135 42.27C92.775 42.15 91.735 42 91.295 42.29C91.115 42.41 91.005 42.7 90.975 43.14C90.905 44.03 90.135 44.69 89.255 44.63C88.365 44.56 87.705 43.79 87.765 42.91Z" fill="#F6F6F6"/>
<path d="M96.075 30C96.225 30.07 96.395 30.04 96.515 29.93C99.155 27.52 101.745 26.02 104.225 25.47C101.205 23.54 97.825 22.58 95.255 22.97C93.055 23.31 90.295 25.14 87.935 27.99C90.335 27.88 93.065 28.55 96.075 29.99V30Z" fill="#F6F6F6"/>
<path d="M100.025 52.17C99.855 52.05 99.605 52.09 99.485 52.25C96.505 56.35 93.655 57.91 91.265 58.28C90.135 58.45 89.105 58.36 88.225 58.14C91.015 61.41 95.165 63.52 101.355 62.57C106.635 61.76 110.165 59.58 112.155 55.92C112.585 55.14 112.935 54.28 113.225 53.36C112.285 54.12 111.005 54.83 109.365 55.08C107.025 55.44 103.935 54.87 100.025 52.17Z" fill="#F6F6F6"/>
<path d="M96.425 19.8399C98.155 19.8399 100.085 20.2199 101.995 20.9499C103.955 21.6899 105.895 22.7899 107.615 24.1299C112.435 27.8999 115.635 33.5099 116.625 39.9499C117.755 47.2699 117.155 53.1399 114.855 57.3799C114.245 58.4899 113.515 59.5099 112.685 60.4099C111.855 61.2999 110.885 62.0999 109.825 62.7799C107.645 64.1699 104.965 65.1099 101.835 65.5899C100.695 65.7699 99.575 65.8499 98.505 65.8499C96.215 65.8499 94.055 65.4499 92.105 64.6599C90.155 63.8699 88.395 62.6899 86.855 61.1499C83.405 57.6799 81.035 52.2999 80.005 45.5899C79.095 39.6899 80.475 33.5499 83.895 28.3199C85.385 26.0399 87.215 24.0499 89.175 22.5599C91.075 21.1199 93.015 20.2199 94.795 19.9499C95.315 19.8699 95.865 19.8299 96.425 19.8299M96.425 18.1999C95.775 18.1999 95.155 18.2499 94.545 18.3399C90.375 18.9799 85.775 22.4699 82.525 27.4299C78.885 32.9999 77.415 39.5399 78.385 45.8399C79.475 52.8899 82.005 58.5899 85.695 62.2999C89.095 65.7199 93.475 67.4799 98.495 67.4799C99.655 67.4799 100.855 67.3899 102.075 67.1999C108.805 66.1599 113.585 63.1199 116.285 58.1499C118.765 53.5899 119.425 47.3799 118.235 39.6899C117.175 32.8399 113.765 26.8499 108.615 22.8299C104.845 19.8799 100.335 18.1899 96.415 18.1899L96.425 18.1999Z" fill="#F6F6F6"/>
</g>
<defs>
<clipPath id="clip0_16_105">
<rect width="235.85" height="67.46" fill="white" transform="translate(0.575012 0.77002)"/>
</clipPath>
</defs>
</svg>
