<svg width="48" height="58" viewBox="0 0 48 58" fill="none" xmlns="http://www.w3.org/2000/svg">
<path d="M26.9952 26.0764C27.599 26.9278 28.7802 27.129 29.632 26.5255C29.9936 26.2687 31.1014 25.7263 31.6997 25.9026C31.9485 25.9758 32.1715 26.2559 32.3631 26.7355C32.7504 27.7052 33.851 28.1776 34.8213 27.7905C35.7915 27.4034 36.2641 26.3033 35.8768 25.3336C35.0757 23.3282 33.7456 22.5637 32.7713 22.2764C30.2448 21.5304 27.7238 23.2437 27.4453 23.4409C26.5934 24.0444 26.3921 25.225 26.996 26.0764H26.9952Z" fill="black"/>
<path d="M13.12 31.1349C14.1618 31.2122 15.0684 30.43 15.1457 29.3886C15.1836 28.8736 15.3116 28.5396 15.5266 28.3948C16.0435 28.0463 17.2633 28.2306 17.686 28.3666C18.6804 28.6853 19.7456 28.1388 20.0652 27.1442C20.3849 26.1503 19.8374 25.0856 18.8422 24.7661C18.5169 24.6615 15.5958 23.7876 13.4122 25.2594C12.5701 25.8268 11.5322 26.9559 11.3728 29.1094C11.2955 30.1507 12.0781 31.0569 13.12 31.1341V31.1349Z" fill="black"/>
<path d="M19.347 0.228577C14.4453 0.984237 9.02979 5.0788 5.21337 10.9148C0.929956 17.4655 -0.799513 25.1533 0.343804 32.561C1.624 40.8539 4.59582 47.5438 8.93801 51.9088C13.8639 56.8596 20.529 58.8505 28.2118 57.666C36.124 56.446 41.7456 52.8672 44.9195 47.0288C47.8366 41.6643 48.6087 34.3652 47.2142 25.3335C45.9718 17.2828 41.9549 10.2453 35.9034 5.51659C30.7343 1.47674 24.3897 -0.549616 19.3462 0.228577H19.347ZM7.32851 19.8942C8.16506 18.3894 9.31482 17.509 10.8438 17.2024C10.9283 17.1855 11.0145 17.1702 11.1023 17.1565C13.0886 16.8499 15.7295 17.451 18.7633 18.9036C20.9775 19.9634 23.5781 19.578 25.3897 17.9226C30.1586 13.5649 34.0129 12.7054 36.8454 15.3699C39.004 17.4003 40.562 21.387 40.9122 25.7762C41.2585 30.1178 40.3857 34.1584 38.6353 36.3232C37.7504 37.4169 36.6932 37.9657 35.405 38.0003C33.6562 38.0478 31.4203 37.1666 28.9388 35.4525C26.2882 33.6217 22.595 34.2469 20.7053 36.8471C17.4646 41.3054 14.5153 42.7346 11.942 41.0938C9.61273 39.609 7.5459 35.9426 6.54992 31.5253C5.53785 27.0364 5.83575 22.5805 7.32931 19.8942H7.32851ZM30.7407 8.61407C27.818 9.26028 24.7721 11.0162 21.6675 13.853C21.5274 13.9817 21.318 14.0123 21.1465 13.9302C17.6119 12.2387 14.4034 11.4508 11.5765 11.578C14.3543 8.23261 17.5966 6.0775 20.1884 5.67834C23.211 5.21239 27.1836 6.34628 30.7407 8.61407ZM27.3712 52.217C20.091 53.3396 15.2061 50.861 11.9275 47.0151C12.967 47.2718 14.1723 47.3829 15.5016 47.1777C18.3076 46.7447 21.6643 44.9091 25.1683 40.0886C25.3092 39.8947 25.5998 39.8488 25.8019 39.9888C30.3969 43.1636 34.029 43.8315 36.7866 43.4066C38.7222 43.108 40.2254 42.2703 41.3285 41.3835C40.9911 42.4723 40.5725 43.4782 40.0725 44.3972C37.7319 48.7027 33.5765 51.261 27.3704 52.2178L27.3712 52.217Z" fill="black"/>
</svg>
